<svg width="1120" height="407" viewBox="0 0 1120 407" fill="none" xmlns="http://www.w3.org/2000/svg">
<path d="M360 0.25H0V96.75H122L120 406.25H242V96.75H360V0.25Z" fill="white"/>
<path d="M379 405V309H535L481 251.5H438L379 197.5L379.5 61.5L445 0H738.5V96.5H516.5L501.5 111V141L516.5 154.5H684.5L712 169L673.5 199.5L632.5 242L598 282.5L568.5 251.5H516.5L541 274L571 308L607.5 351L632.5 308L681 242L738.5 181.5L784 146.5L823.5 128L878.5 117V96.5H760.5V0H1120V96.5H997.5V406H878.5V128L823.5 146.5L790 167.5L752.5 209.5V349L693.5 406.5L379 405Z" fill="white"/>
</svg>
